<svg xmlns="http://www.w3.org/2000/svg" width="354" height="127" viewBox="0 0 354 127" fill="none"><path d="M329.618 84.3375C327.368 86.7888 324.183 88.0951 320.768 88.0584C318.496 88.0584 316.314 87.5374 314.398 86.4732C312.483 85.409 310.857 83.8384 309.542 81.8789C306.833 77.7176 305.823 71.6554 305.786 63.3622C305.815 55.8616 306.825 50.2765 309.535 46.3794C312.096 42.6732 316.098 40.5375 320.56 40.5889C323.901 40.5595 327.02 41.7631 329.21 44.075C330.925 45.829 332.061 48.0895 332.751 50.7462L341.95 48.728C340.265 43.1355 337.822 39.0917 334.771 36.4202C331.341 33.3598 326.7 31.7452 320.345 31.7305C312.705 31.7745 307.13 34.446 302.66 40.1118C299.564 44.0676 297.478 49.227 296.513 55.7515L291.241 55.7735C290.224 49.3078 288.323 44.2951 285.688 40.6623C281.255 34.5928 275.761 31.7892 268.174 31.7305C261.566 31.7745 256.443 34.4093 251.929 40.2733C251.127 41.3228 250.392 42.453 249.731 43.6713L247.296 48.1408L245.002 43.5979C244.334 42.2695 243.584 41.0365 242.752 39.9063C238.52 34.2185 233.969 31.7672 228.386 31.7232C225.179 31.7379 222.402 32.6112 219.759 34.4387C217.056 36.3322 214.933 38.7467 213.322 41.8145L208.288 40.6035V33.2644H203.641L203.514 30.7617C203.121 23.0556 200.767 17.2063 196.528 12.7368C192.281 8.25259 185.874 5.85269 176.631 5.83801C171.025 5.83801 166.4 6.86549 162.665 8.79569C158.938 10.7479 156.169 13.4854 154.149 17.221C152.145 20.986 151.15 24.9785 151.143 29.3526C151.165 36.2221 153.266 41.7411 157.557 46.4455C160.371 49.5426 165.828 52.5443 173.943 54.9662C180.476 56.9478 184.612 58.2909 186.705 59.1642C189.623 60.4339 191.925 61.9971 193.402 64.1622C194.843 66.1878 195.518 68.6611 195.511 71.2958C195.533 75.4058 193.9 79.2221 190.908 82.2165C187.73 85.431 183.127 86.8622 177.685 86.8475C172.413 86.8768 167.766 85.1595 164.432 81.6807C161.559 78.6497 159.718 74.4443 158.649 69.1601L148.633 70.3417C149.843 79.1561 152.702 85.7026 156.986 90.2015C161.626 95.0233 168.241 97.5406 177.521 97.5626C183.929 97.5626 189.096 96.4764 193.09 94.4728C193.974 94.0178 194.82 93.5114 195.615 92.9536L199.817 90.0033V121.73H209.276V82.3046L214.064 88.5722C216.708 92.0363 219.165 94.3628 221.199 95.5737C223.323 96.8214 225.602 97.4379 228.253 97.4379C233.828 97.4012 238.394 94.9205 242.663 89.1446C243.428 88.0805 244.133 86.9356 244.764 85.7026L247.118 81.1229L249.509 85.6879C249.776 86.1943 250.051 86.6934 250.325 87.1557C252.456 90.6712 255.055 93.1812 258.203 94.8692C261.351 96.5572 265.107 97.4379 269.614 97.4452C275.264 97.4305 279.644 95.926 283.201 92.9536C286.267 90.3776 288.71 86.7521 290.477 81.9229L281.077 80.0074C280.231 82.5467 279.087 84.6311 277.469 86.2237C275.435 88.2346 272.665 89.3061 269.762 89.2841C265.553 89.3281 261.744 87.3025 259.108 83.8238C256.369 80.2349 255.099 75.4938 254.988 69.8207L254.936 67.1345H295.844L296.03 69.5711C296.654 77.8864 298.896 84.3228 302.564 89.0639C307.033 94.7297 312.542 97.3865 320.033 97.4305C326.73 97.4085 331.645 95.5664 335.379 91.9775C338.72 88.7557 341.237 84.0072 342.774 77.5488L333.516 75.6333C332.707 79.2955 331.496 82.1798 329.566 84.3302L329.618 84.3375ZM199.854 47.0473V51.9278L195.726 49.2491L195.362 49.0142C192.14 46.9152 186.728 44.6914 179.288 42.5631C175.42 41.4549 172.235 40.3613 169.689 39.2458C167.135 38.1156 165.219 37.022 163.801 35.5982C161.804 33.5947 160.713 30.8938 160.735 28.0756C160.698 25.0739 161.863 22.219 164.098 20.2888C167.261 17.4999 171.552 16.2229 176.504 16.2302C181.293 16.2302 185.369 17.4045 188.19 20.1567C190.588 22.4465 192.051 25.661 192.89 29.6609L199.854 29.2866V47.04V47.0473ZM235.447 82.3046C234.133 84.2201 232.574 85.7686 230.74 86.8401C228.906 87.9117 226.82 88.4548 224.667 88.4474H224.629C222.395 88.4474 220.227 87.8529 218.326 86.708C216.411 85.5631 214.762 83.9045 213.352 81.8495C210.397 77.4534 209.179 71.3399 209.164 63.4356C209.179 56.4928 210.367 50.9664 213.218 46.9152C214.592 44.9557 216.218 43.3777 218.118 42.2915C220.019 41.2053 222.179 40.6549 224.407 40.6623C226.589 40.6623 228.713 41.2274 230.569 42.3356C232.432 43.4364 234.014 45.0364 235.358 47.0106C238.172 51.1866 239.322 56.9478 239.337 64.3383C239.307 72.2206 238.231 78.1433 235.454 82.3119L235.447 82.3046ZM255.381 61.4027L255.315 58.834C255.315 58.6872 255.315 58.5844 255.315 58.511C255.315 53.3736 256.428 48.9775 258.93 45.5795C261.365 42.1888 265.033 40.1632 269.087 40.2146C272.948 40.1779 276.459 42.1227 278.88 45.3299C281.486 48.6766 282.636 53.1975 282.755 58.7165L282.807 61.4027H255.389H255.381Z" fill="#892B2C"></path><path d="M329.247 69.3657L328.816 72.1105C328.141 76.5947 326.901 79.501 325.683 80.7854C324.369 82.1505 322.966 82.7669 320.768 82.7963C319.283 82.7963 318.088 82.4807 317.004 81.8862C315.92 81.2844 314.918 80.3597 313.982 78.9799C312.282 76.5067 311.087 71.1858 311.116 63.3696C311.087 56.3754 312.252 51.649 313.893 49.4105C315.749 46.8932 317.643 45.9244 320.553 45.8657C322.758 45.8951 324.124 46.4822 325.357 47.7299C326.596 48.9849 327.576 51.0692 328.014 54.269L328.408 57.102L348.454 52.7058L347.83 50.1078C345.996 42.4824 342.9 36.5303 338.32 32.5085C333.768 28.4206 327.599 26.461 320.338 26.4757C311.347 26.4317 303.729 30.0279 298.436 36.9046C296.587 39.2605 295.08 41.9246 293.892 44.8749C292.852 42.1741 291.568 39.7522 290.031 37.6165C284.849 30.3067 277.224 26.417 268.181 26.4757C259.977 26.4317 252.864 30.1967 247.675 37.1248C247.608 37.2129 247.541 37.301 247.474 37.3964C247.341 37.2129 247.215 37.0221 247.073 36.8386C242.255 30.1673 235.781 26.439 228.386 26.4757C224.147 26.4757 220.153 27.7307 216.693 30.16C215.601 30.9232 214.577 31.7599 213.634 32.67V28.0169H208.667C207.873 20.487 205.148 14.0872 200.441 9.15534C194.947 3.30604 186.795 0.553862 176.66 0.56854C170.401 0.56854 164.885 1.72079 160.215 4.12802C155.575 6.53526 151.93 10.1461 149.465 14.7551C147.052 19.2613 145.834 24.1786 145.842 29.3527C145.819 37.323 148.455 44.3685 153.637 49.983C157.565 54.2177 163.823 57.4029 172.414 60.0009C178.858 61.9458 183.038 63.3256 184.619 64.0008C186.988 65.0136 188.391 66.1585 189.015 67.1199L189.037 67.1492L189.052 67.1713C189.787 68.2208 190.195 69.4904 190.202 71.2885C190.18 74.0921 189.252 76.3305 187.114 78.5323C185.235 80.4258 182.303 81.556 177.707 81.5707C173.497 81.5413 170.602 80.367 168.315 78.0405C166.11 75.7507 164.358 71.7435 163.504 65.8649L163.126 63.3256L142.805 65.7254L143.05 68.2868C144.097 79.1414 147.364 87.7502 153.132 93.8197C158.953 99.9112 167.32 102.854 177.544 102.832C184.062 102.832 189.742 101.812 194.509 99.647V127H214.629V97.1296C215.898 98.3186 217.175 99.302 218.482 100.08C221.43 101.827 224.763 102.707 228.282 102.7C235.692 102.744 242.173 98.9571 247.029 92.2051C247.081 92.1244 247.14 92.051 247.192 91.9702C249.516 95.1628 252.36 97.7021 255.693 99.4855C259.732 101.658 264.439 102.7 269.651 102.7C276.281 102.715 282.109 100.814 286.69 96.9608C290.031 94.1499 292.659 90.4657 294.612 86.0108C295.659 88.2786 296.914 90.3703 298.384 92.2711C303.67 99.1479 311.22 102.751 320.078 102.707C327.769 102.729 334.333 100.44 339.151 95.7572C343.955 91.1115 347.021 84.4403 348.595 76.0003L349.063 73.4682L329.24 69.3657H329.247ZM335.431 91.9849C331.69 95.5737 326.782 97.4159 320.085 97.4379C312.601 97.3939 307.092 94.7297 302.616 89.0713C298.948 84.3228 296.706 77.8937 296.082 69.5785L295.896 67.1419H254.988L255.04 69.828C255.151 75.5012 256.421 80.2423 259.16 83.8311C261.789 87.3099 265.605 89.3355 269.814 89.2914C272.725 89.3208 275.494 88.2419 277.521 86.231C279.14 84.6384 280.283 82.5541 281.129 80.0148L290.529 81.9303C288.762 86.7594 286.312 90.385 283.253 92.961C279.689 95.926 275.316 97.4305 269.666 97.4526C265.159 97.4526 261.403 96.5645 258.255 94.8765C255.107 93.1812 252.508 90.6712 250.377 87.1631C250.103 86.7007 249.828 86.209 249.561 85.6953L247.17 81.1303L244.816 85.7099C244.185 86.9429 243.48 88.0878 242.715 89.152C238.446 94.9279 233.88 97.4085 228.305 97.4452C225.647 97.4452 223.367 96.8214 221.251 95.5811C219.217 94.3701 216.76 92.051 214.116 88.5795L209.328 82.3119V121.738H199.869V90.0107L195.667 92.961C194.872 93.5188 194.026 94.0252 193.142 94.4802C189.156 96.4911 183.981 97.57 177.573 97.57C168.293 97.548 161.678 95.0306 157.038 90.2088C152.754 85.7099 149.895 79.1634 148.685 70.3491L158.701 69.1675C159.77 74.4517 161.611 78.657 164.484 81.6881C167.825 85.1668 172.465 86.8842 177.737 86.8548C183.179 86.8695 187.782 85.4384 190.96 82.2238C193.952 79.2295 195.585 75.4131 195.563 71.3032C195.57 68.6684 194.895 66.1952 193.454 64.1696C191.977 62.0045 189.675 60.4413 186.757 59.1716C184.664 58.2982 180.528 56.9552 173.995 54.9736C165.88 52.5443 160.423 49.55 157.609 46.4529C153.318 41.7558 151.217 36.2294 151.195 29.36C151.195 24.9859 152.197 20.9934 154.201 17.2284C156.221 13.4928 158.998 10.7479 162.717 8.80306C166.459 6.87286 171.077 5.84538 176.683 5.84538C185.926 5.86006 192.326 8.2673 196.58 12.7442C200.819 17.2137 203.165 23.063 203.566 30.7691L203.693 33.2718H208.34V40.6109L213.374 41.8219C214.985 38.7614 217.108 36.3395 219.811 34.446C222.454 32.6112 225.223 31.7452 228.438 31.7305C234.021 31.7746 238.572 34.2185 242.804 39.9137C243.629 41.0439 244.378 42.2696 245.054 43.6053L247.348 48.1482L249.783 43.6787C250.444 42.4604 251.179 41.3301 251.981 40.2806C256.488 34.4093 261.618 31.7819 268.226 31.7379C275.813 31.7966 281.307 34.6001 285.74 40.6696C288.376 44.3025 290.276 49.3151 291.293 55.7809L296.565 55.7589C297.53 49.2344 299.616 44.075 302.712 40.1192C307.182 34.4607 312.75 31.7893 320.397 31.7379C326.752 31.7526 331.393 33.3745 334.823 36.4276C337.874 39.099 340.317 43.1429 342.002 48.7353L332.803 50.7536C332.113 48.0968 330.969 45.8437 329.262 44.0823C327.072 41.7705 323.946 40.5669 320.612 40.5962C316.15 40.5375 312.148 42.6805 309.587 46.3868C306.877 50.2912 305.867 55.8763 305.838 63.3696C305.867 71.6628 306.877 77.725 309.594 81.8862C310.916 83.8458 312.535 85.4164 314.45 86.4805C316.366 87.5447 318.548 88.0658 320.82 88.0658C324.235 88.0952 327.428 86.7888 329.67 84.3449C331.6 82.1945 332.811 79.3102 333.62 75.648L342.878 77.5635C341.341 84.0219 338.824 88.7704 335.483 91.9922L335.431 91.9849ZM291.679 76.7709L277.231 73.8279L276.637 76.3232C275.902 79.4643 274.826 81.4753 273.787 82.4587C272.658 83.5229 271.537 83.9779 269.814 84.0073C267.208 83.9632 265.345 83.0532 263.407 80.6239C261.937 78.7084 260.927 76.0003 260.541 72.3894H291.004C291.175 73.8939 291.405 75.3544 291.687 76.7635L291.679 76.7709Z" fill="#892B2C"></path><path d="M278.872 45.3226C276.459 42.1154 272.948 40.1706 269.079 40.2072C265.026 40.1632 261.358 42.1815 258.923 45.5722C256.421 48.9702 255.307 53.3663 255.307 58.5037C255.307 58.5771 255.307 58.6872 255.307 58.8267L255.374 61.3954H282.792L282.74 58.7092C282.622 53.1902 281.471 48.6693 278.865 45.3226H278.872ZM260.742 56.1332C261.024 52.9186 261.907 50.482 263.236 48.684C265.011 46.3648 266.681 45.5281 269.079 45.4841C271.247 45.5281 272.858 46.3061 274.648 48.5445C275.947 50.1885 276.89 52.6838 277.254 56.1405H260.742V56.1332Z" fill="#892B2C"></path><path d="M230.562 42.3282C228.705 41.22 226.582 40.6549 224.399 40.6549C222.172 40.6549 220.011 41.198 218.111 42.2842C216.21 43.3631 214.577 44.9483 213.211 46.9079C210.367 50.9591 209.172 56.4854 209.157 63.4283C209.172 71.3325 210.389 77.446 213.344 81.8422C214.762 83.9045 216.403 85.5558 218.319 86.7007C220.219 87.8383 222.395 88.4401 224.622 88.4401H224.659C226.812 88.4401 228.899 87.9043 230.732 86.8328C232.566 85.7686 234.133 84.2127 235.439 82.2972C238.216 78.1286 239.293 72.2059 239.322 64.3236C239.308 56.9331 238.149 51.1719 235.343 46.9959C233.999 45.0217 232.418 43.4291 230.554 42.3209L230.562 42.3282ZM231.029 79.3615C230.072 80.756 229.062 81.7027 228.037 82.2972C227.005 82.8917 225.951 83.1779 224.667 83.1779C223.33 83.1779 222.209 82.8623 221.081 82.2018C219.96 81.5339 218.846 80.4698 217.769 78.8992C215.742 75.9709 214.473 70.7968 214.488 63.4356C214.473 57.0873 215.668 52.5957 217.584 49.9242C218.608 48.4564 219.677 47.4803 220.769 46.8565C221.868 46.2327 223.018 45.9318 224.399 45.9244C225.691 45.9244 226.76 46.2253 227.822 46.8418C228.876 47.4656 229.923 48.4564 230.933 49.9389C232.826 52.6691 234.021 57.4836 234.007 64.3236C234.029 71.6995 232.826 76.7782 231.037 79.3542L231.029 79.3615Z" fill="#892B2C"></path><path d="M188.19 20.164C185.377 17.4118 181.293 16.2302 176.504 16.2376C171.552 16.2302 167.261 17.4999 164.098 20.2961C161.864 22.219 160.698 25.0739 160.735 28.083C160.713 30.9085 161.804 33.602 163.801 35.6056C165.219 37.0294 167.135 38.1229 169.689 39.2531C172.235 40.3687 175.42 41.4622 179.289 42.5704C186.728 44.6988 192.14 46.9225 195.362 49.0215L195.726 49.2564L199.854 51.9352V29.3013L192.89 29.6756C192.051 25.6757 190.589 22.4612 188.19 20.1714V20.164ZM194.524 42.5117C190.908 40.7503 186.349 39.1064 180.773 37.5064C177.061 36.4422 174.069 35.4001 171.849 34.4313C169.629 33.4699 168.182 32.5231 167.632 31.936C166.541 30.7838 166.088 29.6902 166.066 28.0756C166.103 26.2262 166.585 25.1987 167.647 24.2226C169.607 22.4979 172.406 21.5071 176.504 21.4997C180.484 21.5071 182.971 22.4538 184.471 23.9363C186.067 25.4115 187.403 28.2811 188.02 32.78L188.354 35.1799L194.524 34.8496V42.5044V42.5117Z" fill="#892B2C"></path><path d="M61.025 98.5314L54.291 77.2406H23.4426L17.0724 98.5314H0.545654L30.5997 4.80322H47.0745L67.3431 66.2979V30.637H80.9744V39.9063C85.8522 32.7066 91.6581 29.1031 98.3921 29.1031C101.971 29.1031 105.074 29.9985 107.71 31.7893C110.345 33.58 112.498 36.2881 114.184 39.9063C116.641 36.2881 119.284 33.58 122.128 31.7893C124.971 29.9985 128.008 29.1031 131.23 29.1031C135.336 29.1031 138.811 30.1306 141.654 32.1709C144.498 34.1745 146.614 37.1395 148.024 41.0586C149.041 43.9576 149.546 48.6473 149.546 55.1277V98.5388H134.757V59.7294C134.757 52.9994 134.245 48.6473 133.235 46.6877C131.869 44.1337 129.76 42.8493 126.917 42.8493C124.845 42.8493 122.9 43.6199 121.074 45.1538C119.247 46.6877 117.933 48.9482 117.124 51.9279C116.315 54.8709 115.914 59.5386 115.914 65.9309V98.5388H101.124V61.3293C101.124 54.7241 100.864 50.46 100.337 48.5445C99.8101 46.629 98.986 45.1979 97.8649 44.2585C96.7735 43.319 95.2887 42.8567 93.388 42.8493C91.1087 42.8493 89.0521 43.5979 87.2332 45.0878C85.4068 46.585 84.0926 48.7353 83.2834 51.5462C82.5112 54.3571 82.1252 59.0248 82.1252 65.5493V98.5388H61.0175L61.025 98.5314ZM49.287 61.4467L38.6552 26.6665L28.2313 61.4467H49.287Z" fill="#892B2C"></path><path d="M197.189 47.0473V32.0754L190.663 32.4277C189.995 27.6132 188.554 24.1565 186.349 22.0648C184.174 19.9365 180.892 18.8723 176.504 18.865C171.976 18.865 168.434 19.9952 165.873 22.2557C164.224 23.7088 163.4 25.6463 163.4 28.0756C163.4 30.292 164.172 32.1929 165.717 33.7634C167.677 35.767 172.451 37.8587 180.031 40.0311C187.611 42.2035 193.209 44.4639 196.825 46.8051L197.189 47.04V47.0473ZM211.822 63.4356C211.822 71.0683 213.07 76.7121 215.557 80.3817C218.044 84.0072 221.081 85.82 224.659 85.82C228.238 85.82 230.955 84.1613 233.242 80.8367C235.521 77.468 236.664 71.971 236.664 64.3383C236.664 57.2193 235.491 51.9352 233.138 48.4784C230.784 45.0217 227.874 43.297 224.399 43.297C220.925 43.297 217.784 44.9997 215.401 48.4124C213.01 51.781 211.822 56.7863 211.822 63.4356ZM279.236 76.9249L293.974 79.9267C292.08 86.4952 289.081 91.5005 284.975 94.9499C280.907 98.3626 275.799 100.065 269.659 100.065C259.94 100.065 252.746 96.2049 248.076 88.4914C247.764 87.9704 247.467 87.4273 247.177 86.8842C246.487 88.2272 245.715 89.4896 244.868 90.6638C240.31 96.9315 234.779 100.065 228.29 100.065C225.201 100.065 222.395 99.3167 219.87 97.8268C217.383 96.337 214.748 93.783 211.978 90.1574V124.365H197.189V95.0967C196.29 95.7205 195.348 96.293 194.353 96.8067C189.861 99.0671 184.263 100.19 177.559 100.197C167.803 100.197 160.312 97.4672 155.085 92.0142C149.858 86.5172 146.732 78.5249 145.715 68.0372L160.876 66.2465C161.789 72.4261 163.63 76.969 166.4 79.868C169.206 82.7669 172.978 84.2127 177.722 84.2127C182.741 84.2127 186.505 82.9357 189.037 80.3743C191.598 77.7763 192.875 74.7526 192.875 71.2958C192.875 69.0794 192.333 67.2079 191.242 65.6667C190.188 64.0888 188.331 62.731 185.666 61.5788C183.84 60.8082 179.682 59.4505 173.193 57.4836C164.841 54.9662 158.983 51.8764 155.612 48.2142C150.875 43.0548 148.507 36.7725 148.507 29.3526C148.507 24.5822 149.613 20.1273 151.818 15.988C154.06 11.8121 157.275 8.63421 161.448 6.46183C165.657 4.28944 170.728 3.20325 176.66 3.20325C186.342 3.20325 193.625 5.78663 198.503 10.9387C203.232 15.9073 205.801 22.4685 206.202 30.6296H210.976V40.6035C212.765 37.1982 215.186 34.424 218.237 32.2956C221.288 30.1673 224.674 29.1031 228.394 29.0957C234.883 29.0957 240.392 32.1855 244.92 38.3651C245.841 39.6201 246.665 40.9705 247.393 42.4236C248.113 41.0952 248.922 39.8476 249.806 38.688C254.646 32.2956 260.772 29.0957 268.174 29.0957C276.489 29.0957 283.052 32.4424 287.856 39.1357C290.803 43.2089 292.808 48.6179 293.87 55.3699C294.887 48.5078 297.107 42.886 300.544 38.4972C305.422 32.2296 312.015 29.0957 320.338 29.0957C327.146 29.0957 332.543 30.8865 336.545 34.468C340.577 38.0055 343.472 43.4218 345.232 50.7095L330.65 53.9094C330.16 50.3719 329.032 47.7078 327.279 45.9171C325.557 44.1263 323.315 43.2309 320.538 43.2309C316.856 43.2309 313.908 44.7868 311.696 47.8986C309.52 50.9664 308.436 56.1258 308.436 63.3695C308.436 71.4279 309.543 77.1158 311.755 80.4404C313.997 83.765 317.004 85.431 320.753 85.431C323.56 85.431 325.854 84.4696 327.651 82.5541C329.44 80.5945 330.702 77.2479 331.437 72.5141L345.967 75.5232C344.452 83.6256 341.564 89.7391 337.28 93.871C332.996 98.003 327.265 100.073 320.07 100.073C311.896 100.073 305.37 96.9388 300.492 90.6712C296.424 85.4017 294.063 78.4368 293.409 69.7619H257.698C257.802 75.0902 258.997 79.2441 261.276 82.2311C263.556 85.1741 266.399 86.642 269.8 86.642C272.116 86.642 274.061 85.8714 275.643 84.3375C277.224 82.8036 278.412 80.3303 279.221 76.9176L279.236 76.9249ZM280.075 58.7679C279.971 53.5718 278.865 49.6233 276.756 46.9372C274.648 44.2144 272.086 42.8493 269.072 42.842C265.842 42.842 263.177 44.2731 261.069 47.128C258.96 49.9829 257.928 53.8654 257.965 58.7679H280.068H280.075Z" fill="white"></path><path d="M354 97.5406C354 100.021 352.033 101.966 349.471 101.966C346.91 101.966 344.913 100.021 344.913 97.5406C344.913 95.06 346.932 93.1665 349.471 93.1665C352.01 93.1665 354 95.1114 354 97.5406ZM346.049 97.5406C346.049 99.4855 347.504 101.034 349.501 101.034C351.498 101.034 352.872 99.4855 352.872 97.57C352.872 95.6545 351.446 94.0472 349.471 94.0472C347.496 94.0472 346.049 95.6178 346.049 97.5406ZM348.773 99.8304H347.749V95.4563C348.15 95.3756 348.721 95.3242 349.449 95.3242C350.288 95.3242 350.659 95.4563 350.986 95.6471C351.231 95.8306 351.416 96.1829 351.416 96.6086C351.416 97.0856 351.038 97.4599 350.503 97.6214V97.6727C350.934 97.8342 351.179 98.1498 351.312 98.7369C351.446 99.4048 351.528 99.669 351.639 99.8304H350.533C350.399 99.669 350.318 99.2727 350.184 98.7663C350.102 98.2892 349.835 98.0764 349.263 98.0764H348.781V99.8378L348.773 99.8304ZM348.803 97.3498H349.286C349.85 97.3498 350.31 97.1663 350.31 96.7113C350.31 96.315 350.013 96.0434 349.367 96.0434C349.1 96.0434 348.907 96.0728 348.803 96.0948V97.3498Z" fill="#892B2C"></path></svg>