<?xml version="1.0" encoding="UTF-8"?>
<svg id="Capa_2" data-name="Capa 2" xmlns="http://www.w3.org/2000/svg" viewBox="0 0 246.05 117.8">
  <defs>
    <style>
      .cls-1 {
        fill: #0076b4;
      }
    </style>
  </defs>
  <g id="Capa_1-2" data-name="Capa 1">
    <path class="cls-1" d="M85.15,117.7H7.85c-2.8,0-5.4-1.5-6.8-3.9-1.4-2.4-1.4-5.4,0-7.8L56.45,8.6c.4-.8.1-1.4,0-1.7s-.6-.8-1.5-.8h-16.7c-.9,0-1.3.6-1.5.8-.1.3-.4.9,0,1.7l6.9,12c.8,1.5.3,3.4-1.1,4.2-1.5.8-3.4.3-4.2-1.1l-6.9-12c-1.4-2.5-1.4-5.4,0-7.8,1.4-2.5,4-3.9,6.8-3.9h16.7c2.8,0,5.4,1.5,6.8,3.9,1.4,2.5,1.4,5.4,0,7.8L6.35,109.1c-.4.8-.1,1.4,0,1.7s.6.8,1.5.8h77.3c.9,0,1.3-.6,1.5-.8.1-.3.4-.9,0-1.7l-34.5-61.1c-.8-1.5-.3-3.4,1.2-4.2,1.5-.8,3.4-.3,4.2,1.2l34.5,61.1c1.4,2.5,1.4,5.4,0,7.8-1.4,2.4-4,3.9-6.8,3.9l-.1-.1Z"/>
    <g>
      <path class="cls-1" d="M127.85,49.6v-31.4c0-.6-.5-1.1-1.1-1.1h-11.1c-.6,0-1.1-.5-1.1-1.1v-3.7c0-.6.5-1.1,1.1-1.1h31c.6,0,1.1.5,1.1,1.1v3.7c0,.6-.5,1.1-1.1,1.1h-11c-.6,0-1.1.5-1.1,1.1v31.4c0,.6-.5,1.1-1.1,1.1h-4.7c-.6,0-1.1-.5-1.1-1.1h.2Z"/>
      <path class="cls-1" d="M178.55,27.6c-1.3-2.3-3.1-4.1-5.3-5.4-2.3-1.3-4.9-1.9-7.8-1.9s-5.6.7-7.9,2-4.2,3.1-5.5,5.5c-1.3,2.3-2,5-2,7.9s.7,5.6,2.1,7.9,3.3,4.1,5.8,5.5c2.5,1.3,5.3,2,8.6,2s4.9-.4,7-1.2c1.7-.7,3.2-1.7,4.4-2.9.4-.4.4-1,0-1.4l-2.2-2.6c-.4-.4-1.1-.5-1.5-.1-.9.8-1.8,1.4-2.9,1.8-1.4.5-2.9.8-4.6.8s-3.8-.4-5.3-1.2c-1.5-.8-2.7-1.9-3.6-3.3-.6-.9-.9-1.9-1.1-3h23.8v-2c0-3.2-.6-5.9-1.9-8.2l-.1-.2ZM157.65,30.1c.8-1.4,1.8-2.4,3.1-3.2,1.3-.8,2.9-1.2,4.6-1.2s3.3.4,4.6,1.2c1.3.8,2.4,1.8,3.2,3.2.5.9.9,1.9,1,3v.2h-17.6c.2-1.2.5-2.2,1-3.2h.1Z"/>
      <path class="cls-1" d="M199.25,51c-3.1,0-5.8-.7-8.3-2s-4.4-3.1-5.7-5.5c-1.4-2.3-2.1-5-2.1-7.9s.7-5.6,2.1-7.9,3.3-4.1,5.7-5.4c2.5-1.3,5.2-2,8.3-2s5.4.6,7.6,1.7c1.9,1,3.4,2.4,4.5,4.2s.1,1.1-.4,1.4l-3.3,2c-.5.3-1.1.2-1.4-.3-.8-1-1.7-1.8-2.8-2.4-1.3-.7-2.8-1-4.3-1s-3.4.4-4.8,1.2c-1.4.8-2.6,1.9-3.4,3.3s-1.2,3.1-1.2,5.1.4,3.7,1.2,5.2c.8,1.4,2,2.6,3.4,3.3,1.4.8,3,1.2,4.8,1.2s3-.3,4.3-1c1.1-.5,2-1.3,2.8-2.4s.9-.6,1.4-.3l3.3,2c.5.3.7,1,.4,1.4-1.1,1.8-2.6,3.2-4.5,4.2-2.2,1.2-4.7,1.7-7.6,1.7v.2Z"/>
      <path class="cls-1" d="M244.25,26c-1.1-2-2.6-3.4-4.5-4.3s-4-1.4-6.5-1.4-4.9.5-6.9,1.5c-1.3.6-2.3,1.5-3.2,2.5v-14.4c0-.6-.5-1.1-1.1-1.1h-4.4c-.6,0-1.1.5-1.1,1.1v39.7c0,.6.5,1.1,1.1,1.1h4.4c.6,0,1.1-.5,1.1-1.1v-14.3c0-2,.4-3.7,1.1-5.1s1.8-2.4,3.1-3.1c1.3-.7,2.8-1,4.5-1s4.2.7,5.5,2.1,1.9,3.4,1.9,6.1v15.3c0,.6.5,1.1,1.1,1.1h4.5c.6,0,1.1-.5,1.1-1.1v-16.1c0-3-.6-5.5-1.7-7.4v-.1Z"/>
      <path class="cls-1" d="M151.45,75.5s0-.2-.1-.2v-.1l-.2-.2h-13.9c-.6,0-1.1.5-1.1,1.1v2.9c0,.6.5,1.1,1.1,1.1h7.9v7.3c-.9.5-1.8,1-2.7,1.3-1.9.7-3.8,1-5.7,1s-4.1-.4-5.9-1.1c-1.8-.7-3.3-1.7-4.6-3s-2.3-2.8-3.1-4.5c-.7-1.7-1.1-3.6-1.1-5.7s.4-4,1.1-5.7c.7-1.7,1.8-3.2,3.1-4.5s2.9-2.3,4.7-3,3.8-1.1,5.9-1.1,4.1.4,5.9,1.1c1.5.6,3,1.5,4.3,2.8.4.4,1.1.4,1.5,0l2.8-2.8c.4-.4.4-1.1,0-1.5-1.7-1.7-3.7-3-6.1-4-2.6-1.1-5.6-1.6-8.9-1.6s-5.9.5-8.5,1.5-4.8,2.4-6.8,4.2c-1.9,1.8-3.4,4-4.4,6.4-1.1,2.5-1.6,5.2-1.6,8.1s.5,5.6,1.6,8.1,2.5,4.6,4.4,6.4c1.9,1.8,4.1,3.2,6.7,4.2,2.6,1,5.4,1.5,8.4,1.5s5.5-.4,8.2-1.3c2.7-.8,5-2.1,7-3.7h0v-15h.1Z"/>
      <path class="cls-1" d="M186.75,64.9h-4.4c-.6,0-1.1.5-1.1,1.1v14.2c0,2-.4,3.7-1.1,5.1-.7,1.4-1.7,2.4-3,3.1s-2.7,1.1-4.5,1.1-4.1-.7-5.4-2.1c-1.3-1.4-1.9-3.4-1.9-6.1v-15.3c0-.6-.5-1.1-1.1-1.1h-4.5c-.6,0-1.1.5-1.1,1.1v16.1c0,3,.5,5.4,1.6,7.4s2.6,3.4,4.6,4.4c2,.9,4.2,1.4,6.7,1.4s4.5-.5,6.4-1.5c1.3-.7,2.4-1.6,3.3-2.7v2.8c0,.6.5,1.1,1.1,1.1h4.2c.6,0,1.1-.5,1.1-1.1v-27.9c0-.6-.5-1.1-1.1-1.1h.2Z"/>
      <path class="cls-1" d="M211.55,64.6c-2.4.1-4.4.6-6.1,1.5-1.5.8-2.6,1.9-3.5,3.2v-3.4c0-.6-.5-1.1-1.1-1.1h-4.2c-.6,0-1.1.5-1.1,1.1v27.9c0,.6.5,1.1,1.1,1.1h4.4c.6,0,1.1-.5,1.1-1.1v-13.6c0-3.2.8-5.5,2.4-7.1s3.8-2.4,6.5-2.4.5,0,.7,0h.8v-5.2c0-.6-.5-1.1-1.1-1.1l.1.2Z"/>
      <path class="cls-1" d="M245.15,65h-4.4c-.6,0-1.1.5-1.1,1.1v14.2c0,2-.4,3.7-1.1,5.1-.7,1.4-1.7,2.4-3,3.1s-2.7,1.1-4.5,1.1-4.1-.7-5.4-2.1c-1.3-1.4-1.9-3.4-1.9-6.1v-15.3c0-.6-.5-1.1-1.1-1.1h-4.5c-.6,0-1.1.5-1.1,1.1v16.1c0,3,.5,5.4,1.6,7.4s2.6,3.4,4.6,4.4c2,.9,4.2,1.4,6.7,1.4s4.5-.5,6.4-1.5c1.3-.7,2.4-1.6,3.3-2.7v2.8c0,.6.5,1.1,1.1,1.1h4.2c.6,0,1.1-.5,1.1-1.1v-27.8c0-.6-.5-1.1-1.1-1.1l.2-.1Z"/>
    </g>
  </g>
</svg>